<mxfile host="app.diagrams.net" agent="Mozilla/5.0 (Windows NT 10.0; Win64; x64) AppleWebKit/537.36 (KHTML, like Gecko) Chrome/132.0.0.0 YaBrowser/25.2.0.0 Safari/537.36" version="26.2.13">
  <diagram name="Страница — 1" id="p6XjmM2-79YfAKSI99y3">
    <mxGraphModel dx="1428" dy="764" grid="1" gridSize="10" guides="1" tooltips="1" connect="1" arrows="1" fold="1" page="1" pageScale="1" pageWidth="827" pageHeight="1169" math="0" shadow="0">
      <root>
        <mxCell id="0" />
        <mxCell id="1" parent="0" />
        <mxCell id="KhFJhjJeQgkqjx2IOj1z-3" value="Приложение" style="shape=umlLifeline;perimeter=lifelinePerimeter;whiteSpace=wrap;html=1;container=1;dropTarget=0;collapsible=0;recursiveResize=0;outlineConnect=0;portConstraint=eastwest;newEdgeStyle={&quot;curved&quot;:0,&quot;rounded&quot;:0};" vertex="1" parent="1">
          <mxGeometry x="220" y="110" width="100" height="330" as="geometry" />
        </mxCell>
        <mxCell id="KhFJhjJeQgkqjx2IOj1z-4" value="" style="html=1;points=[[0,0,0,0,5],[0,1,0,0,-5],[1,0,0,0,5],[1,1,0,0,-5]];perimeter=orthogonalPerimeter;outlineConnect=0;targetShapes=umlLifeline;portConstraint=eastwest;newEdgeStyle={&quot;curved&quot;:0,&quot;rounded&quot;:0};" vertex="1" parent="KhFJhjJeQgkqjx2IOj1z-3">
          <mxGeometry x="45" y="60" width="10" height="250" as="geometry" />
        </mxCell>
        <mxCell id="KhFJhjJeQgkqjx2IOj1z-25" value="2. Обработать текст&lt;div&gt;запроса&lt;/div&gt;" style="html=1;verticalAlign=bottom;endArrow=block;curved=0;rounded=0;" edge="1" parent="KhFJhjJeQgkqjx2IOj1z-3" source="KhFJhjJeQgkqjx2IOj1z-4" target="KhFJhjJeQgkqjx2IOj1z-4">
          <mxGeometry x="-0.2105" y="30" width="80" relative="1" as="geometry">
            <mxPoint x="110" y="150" as="sourcePoint" />
            <mxPoint x="190" y="150" as="targetPoint" />
            <Array as="points">
              <mxPoint x="120" y="130" />
              <mxPoint x="120" y="190" />
            </Array>
            <mxPoint as="offset" />
          </mxGeometry>
        </mxCell>
        <mxCell id="KhFJhjJeQgkqjx2IOj1z-16" value="Голосовое АПИ" style="shape=umlLifeline;perimeter=lifelinePerimeter;whiteSpace=wrap;html=1;container=1;dropTarget=0;collapsible=0;recursiveResize=0;outlineConnect=0;portConstraint=eastwest;newEdgeStyle={&quot;curved&quot;:0,&quot;rounded&quot;:0};" vertex="1" parent="1">
          <mxGeometry x="450" y="110" width="100" height="330" as="geometry" />
        </mxCell>
        <mxCell id="KhFJhjJeQgkqjx2IOj1z-17" value="" style="html=1;points=[[0,0,0,0,5],[0,1,0,0,-5],[1,0,0,0,5],[1,1,0,0,-5]];perimeter=orthogonalPerimeter;outlineConnect=0;targetShapes=umlLifeline;portConstraint=eastwest;newEdgeStyle={&quot;curved&quot;:0,&quot;rounded&quot;:0};" vertex="1" parent="KhFJhjJeQgkqjx2IOj1z-16">
          <mxGeometry x="45" y="60" width="10" height="250" as="geometry" />
        </mxCell>
        <mxCell id="KhFJhjJeQgkqjx2IOj1z-20" value="1. Запрос пользователя" style="html=1;verticalAlign=bottom;endArrow=block;curved=0;rounded=0;" edge="1" parent="1">
          <mxGeometry width="80" relative="1" as="geometry">
            <mxPoint x="495" y="200" as="sourcePoint" />
            <mxPoint x="275" y="200" as="targetPoint" />
            <Array as="points">
              <mxPoint x="390" y="200" />
            </Array>
          </mxGeometry>
        </mxCell>
        <mxCell id="KhFJhjJeQgkqjx2IOj1z-21" value="3. Остановить воспроизведение&lt;div&gt;текста&lt;/div&gt;" style="html=1;verticalAlign=bottom;endArrow=block;curved=0;rounded=0;" edge="1" parent="1" source="KhFJhjJeQgkqjx2IOj1z-4" target="KhFJhjJeQgkqjx2IOj1z-17">
          <mxGeometry width="80" relative="1" as="geometry">
            <mxPoint x="280" y="370" as="sourcePoint" />
            <mxPoint x="490" y="370" as="targetPoint" />
            <Array as="points">
              <mxPoint x="395" y="370" />
            </Array>
          </mxGeometry>
        </mxCell>
      </root>
    </mxGraphModel>
  </diagram>
</mxfile>
